<svg width="8" height="13" viewBox="0 0 8 13" fill="none" xmlns="http://www.w3.org/2000/svg">
<path fill-rule="evenodd" clip-rule="evenodd" d="M7.16943 6.15924C7.16939 6.35844 7.09022 6.54947 6.94935 6.69031L1.69127 11.9484C1.5496 12.0852 1.35986 12.1609 1.16291 12.1592C0.965957 12.1575 0.777558 12.0785 0.638288 11.9392C0.499019 11.8 0.420021 11.6116 0.418309 11.4146C0.416598 11.2177 0.49231 11.0279 0.629138 10.8862L5.35615 6.15924L0.629138 1.43223C0.49231 1.29056 0.416598 1.10082 0.418309 0.903867C0.420021 0.706917 0.499019 0.518519 0.638288 0.379249C0.777558 0.239979 0.965957 0.160981 1.16291 0.159269C1.35986 0.157558 1.5496 0.23327 1.69127 0.370099L6.94935 5.62817C7.09022 5.76901 7.16939 5.96004 7.16943 6.15924Z" fill="black"/>
</svg>
