<svg width="23" height="21" viewBox="0 0 23 21" fill="none" xmlns="http://www.w3.org/2000/svg">
<path d="M8 3H13.446C13.6156 3 13.7824 3.04314 13.9308 3.12536C14.0791 3.20758 14.2041 3.32617 14.294 3.47L17.75 9H22.158C22.2448 8.99994 22.3302 9.02248 22.4056 9.06542C22.4811 9.10837 22.5441 9.17022 22.5884 9.24489C22.6327 9.31957 22.6568 9.40449 22.6583 9.49131C22.6598 9.57812 22.6387 9.66383 22.597 9.74L18.637 17H18C17.4819 17.0004 16.966 16.9339 16.465 16.802L19.63 11H2.4L3.448 16.824C2.97426 16.9412 2.48802 17.0003 2 17H1.455L0.215 10.179C0.188807 10.035 0.194528 9.88708 0.231758 9.74557C0.268987 9.60406 0.336819 9.47244 0.430467 9.36001C0.524115 9.24757 0.641297 9.15706 0.773743 9.09485C0.90619 9.03265 1.05067 9.00027 1.197 9H2V4C2 3.73478 2.10536 3.48043 2.29289 3.29289C2.48043 3.10536 2.73478 3 3 3H4V0H8V3ZM4 9H15.392L12.892 5H4V9ZM2 19C3.47626 19.002 4.90107 18.4578 6 17.472C7.09893 18.4578 8.52374 19.002 10 19C11.4763 19.002 12.9011 18.4578 14 17.472C15.0989 18.4578 16.5237 19.002 18 19H20V21H18C16.5956 21.0023 15.2157 20.6331 14 19.93C12.7843 20.6331 11.4044 21.0023 10 21C8.59564 21.0023 7.21565 20.6331 6 19.93C4.78435 20.6331 3.40436 21.0023 2 21H0V19H2Z" fill="#28769A"/>
</svg>
