<svg width="18" height="18" viewBox="0 0 18 18" fill="none" xmlns="http://www.w3.org/2000/svg">
<path fill-rule="evenodd" clip-rule="evenodd" d="M5 5.99999C5 4.93913 5.42143 3.92171 6.17157 3.17157C6.92172 2.42142 7.93913 1.99999 9 1.99999C10.0609 1.99999 11.0783 2.42142 11.8284 3.17157C12.5786 3.92171 13 4.93913 13 5.99999C13 7.06086 12.5786 8.07827 11.8284 8.82842C11.0783 9.57857 10.0609 9.99999 9 9.99999C7.93913 9.99999 6.92172 9.57857 6.17157 8.82842C5.42143 8.07827 5 7.06086 5 5.99999ZM12.824 10.623C13.7755 9.83585 14.461 8.77428 14.7868 7.58316C15.1127 6.39203 15.0631 5.12937 14.6448 3.96748C14.2265 2.80559 13.4599 1.80106 12.4495 1.09099C11.4392 0.380913 10.2344 -0.00012207 8.9995 -0.00012207C7.7646 -0.00012207 6.55978 0.380913 5.54946 1.09099C4.53913 1.80106 3.77251 2.80559 3.35421 3.96748C2.9359 5.12937 2.8863 6.39203 3.21217 7.58316C3.53803 8.77428 4.22349 9.83585 5.175 10.623C1.986 11.746 0 14.247 0 17C0 17.2652 0.105357 17.5196 0.292893 17.7071C0.48043 17.8946 0.734784 18 1 18C1.26522 18 1.51957 17.8946 1.70711 17.7071C1.89464 17.5196 2 17.2652 2 17C2 14.73 4.355 12 9 12C13.645 12 16 14.73 16 17C16 17.2652 16.1054 17.5196 16.2929 17.7071C16.4804 17.8946 16.7348 18 17 18C17.2652 18 17.5196 17.8946 17.7071 17.7071C17.8946 17.5196 18 17.2652 18 17C18 14.247 16.016 11.746 12.824 10.623Z" fill="#28769A"/>
</svg>
