<svg width="216" height="221" viewBox="0 0 216 221" fill="none" xmlns="http://www.w3.org/2000/svg">
<path d="M216 110.5C216 133.835 208.78 156.572 195.374 175.45C181.968 194.329 163.065 208.381 141.374 215.592C119.683 222.803 96.3172 222.803 74.6262 215.592C52.9351 208.381 34.032 194.329 20.6262 175.45L55.5757 149.47C63.6192 160.797 74.961 169.228 87.9757 173.555C100.99 177.882 115.01 177.882 128.024 173.555C141.039 169.228 152.381 160.797 160.424 149.47C168.468 138.143 172.8 124.501 172.8 110.5H216Z" fill="#F4BE37"/>
<path d="M61.2777 210.125C44.8769 202.073 30.7297 189.913 20.1488 174.773L55.2893 149.064C61.6378 158.148 70.1262 165.444 79.9666 170.275L61.2777 210.125Z" fill="#FF9F40"/>
<path d="M74.2062 5.54886C90.449 0.0737817 107.73 -1.37644 124.628 1.31756C141.526 4.01156 157.557 10.7728 171.401 21.0447C185.246 31.3166 196.509 44.8056 204.262 60.4014C212.016 75.9972 216.039 93.254 216 110.751L172.8 110.651C172.823 100.152 170.409 89.7983 165.757 80.4408C161.105 71.0833 154.348 62.99 146.041 56.8268C137.734 50.6637 128.116 46.6069 117.977 44.9905C107.838 43.3741 97.4694 44.2443 87.7237 47.5293L74.2062 5.54886Z" fill="#5388D8"/>
<path d="M20.8954 175.828C10.8192 161.764 4.1394 145.459 1.40205 128.247C-1.3353 111.036 -0.0524499 93.4054 5.14572 76.7982C10.3439 60.191 19.3098 45.0783 31.3103 32.6957C43.3109 20.3131 58.0053 11.0122 74.1923 5.55352L87.7154 47.5321C78.0032 50.8073 69.1865 56.3879 61.9862 63.8174C54.7859 71.247 49.4063 80.3146 46.2874 90.2789C43.1685 100.243 42.3988 110.821 44.0412 121.148C45.6836 131.475 49.6915 141.258 55.7372 149.697L20.8954 175.828Z" fill="#0D2535"/>
</svg>
