<svg width="15" height="10" viewBox="0 0 15 10" fill="none" xmlns="http://www.w3.org/2000/svg">
<path opacity="0.8" d="M14.1667 0.555555V9.44444C14.1667 9.59179 14.092 9.73309 13.9592 9.83728C13.8264 9.94147 13.6462 10 13.4583 10H0.708333C0.520472 10 0.340304 9.94147 0.207466 9.83728C0.0746277 9.73309 0 9.59179 0 9.44444L0 0.555555C0 0.408213 0.0746277 0.266905 0.207466 0.162718C0.340304 0.0585308 0.520472 0 0.708333 0H13.4583C13.6462 0 13.8264 0.0585308 13.9592 0.162718C14.092 0.266905 14.1667 0.408213 14.1667 0.555555ZM12.75 1.11111H1.41667L1.41667 8.88889H12.75V1.11111ZM4.95833 7.22222V2.77778H6.375V7.22222H4.95833ZM7.79167 7.22222V2.77778H9.20833V7.22222H7.79167Z" fill="#09121F"/>
</svg>
