<svg width="13" height="17" viewBox="0 0 13 17" fill="none" xmlns="http://www.w3.org/2000/svg">
<path fill-rule="evenodd" clip-rule="evenodd" d="M6.00922 0C6.20813 0 6.39889 0.0819452 6.53955 0.227809C6.6802 0.373672 6.75922 0.571505 6.75922 0.777787V11.3448L10.729 7.22798C10.8704 7.0863 11.0599 7.0079 11.2565 7.00967C11.4532 7.01144 11.6413 7.09324 11.7803 7.23745C11.9194 7.38166 11.9983 7.57674 12 7.78067C12.0017 7.9846 11.9261 8.18107 11.7895 8.32777L6.53947 13.7723C6.39882 13.9181 6.20809 14 6.00922 14C5.81034 14 5.61961 13.9181 5.47897 13.7723L0.228966 8.32777C0.157334 8.25602 0.100197 8.17019 0.0608901 8.0753C0.0215834 7.98041 0.00089368 7.87835 2.83178e-05 7.77507C-0.000837044 7.6718 0.0181391 7.56938 0.0558497 7.47379C0.0935604 7.3782 0.14925 7.29136 0.21967 7.21833C0.290089 7.14531 0.373828 7.08755 0.466001 7.04845C0.558173 7.00934 0.656933 6.98966 0.756517 6.99055C0.856102 6.99145 0.954516 7.01291 1.04602 7.05367C1.13752 7.09443 1.22028 7.15369 1.28947 7.22798L5.25922 11.3448V0.777787C5.25922 0.571505 5.33823 0.373672 5.47889 0.227809C5.61954 0.0819452 5.8103 0 6.00922 0Z" fill="#28769A"/>
<line y1="16.25" x2="13" y2="16.25" stroke="#28769A" stroke-width="1.5"/>
</svg>
