<svg xmlns="http://www.w3.org/2000/svg" width="852.616" height="314.761" viewBox="0 0 852.616 314.761">
  <path id="Icon_material-call-end" data-name="Icon material-call-end" d="M426.308,81.552A529.712,529.712,0,0,0,262.89,107.131V217.262A35.793,35.793,0,0,1,243,249.235a408.935,408.935,0,0,0-94.5,65.723,34.889,34.889,0,0,1-24.868,9.947,35.413,35.413,0,0,1-25.223-10.3L10.3,226.5A33.979,33.979,0,0,1,0,201.63a35.414,35.414,0,0,1,10.3-25.224C118.656,73.736,265.021,10.5,426.308,10.5S733.96,73.736,842.313,176.407a36.029,36.029,0,0,1,0,50.447l-88.1,88.1a35.413,35.413,0,0,1-25.223,10.3,36.451,36.451,0,0,1-24.868-9.947,400.387,400.387,0,0,0-94.854-65.723,35.393,35.393,0,0,1-19.894-31.973V107.486C538.214,90.434,483.149,81.552,426.308,81.552Z" transform="translate(0 -10.5)"/>
</svg>
