<svg id="eye" xmlns="http://www.w3.org/2000/svg" width="512" height="512" viewBox="0 0 512 512">
  <path id="Path_586" data-name="Path 586" d="M0,0H512V512H0Z" fill="none"/>
  <path id="Path_587" data-name="Path 587" d="M231.986,3C347.016,3,442.717,85.773,462.792,195,442.738,304.227,347.016,387,231.986,387S21.256,304.227,1.181,195C21.234,85.773,116.957,3,231.986,3Zm0,341.333A192.1,192.1,0,0,0,419.22,195.041a192.107,192.107,0,0,0-374.481-.02A192.107,192.107,0,0,0,231.986,344.333Zm0-53.333a96,96,0,1,1,96-96A96,96,0,0,1,231.986,291Zm0-42.667A53.333,53.333,0,1,0,178.653,195,53.333,53.333,0,0,0,231.986,248.333Z" transform="translate(24.014 61)" fill="#666f80"/>
</svg>
