<svg width="18" height="20" viewBox="0 0 18 20" fill="none" xmlns="http://www.w3.org/2000/svg">
<path d="M16.3333 19.1667H1.66667C1.42355 19.1667 1.19039 19.0701 1.01849 18.8982C0.846577 18.7263 0.75 18.4932 0.75 18.25V1.75004C0.75 1.50693 0.846577 1.27377 1.01849 1.10186C1.19039 0.929951 1.42355 0.833374 1.66667 0.833374H16.3333C16.5764 0.833374 16.8096 0.929951 16.9815 1.10186C17.1534 1.27377 17.25 1.50693 17.25 1.75004V18.25C17.25 18.4932 17.1534 18.7263 16.9815 18.8982C16.8096 19.0701 16.5764 19.1667 16.3333 19.1667ZM15.4167 17.3334V2.66671H2.58333V17.3334H15.4167ZM4.41667 4.50004H8.08333V8.16671H4.41667V4.50004ZM4.41667 10H13.5833V11.8334H4.41667V10ZM4.41667 13.6667H13.5833V15.5H4.41667V13.6667ZM9.91667 5.41671H13.5833V7.25004H9.91667V5.41671Z" fill="#747474"/>
</svg>
