<svg width="176" height="57" viewBox="0 0 176 57" fill="none" xmlns="http://www.w3.org/2000/svg">
<g filter="url(#filter0_d_796_2)">
<rect x="10" y="10" width="154" height="35" rx="17.5" fill="white"/>
</g>
<path d="M55.1484 24.2246L52.3242 32H51.1699L54.4219 23.4688H55.166L55.1484 24.2246ZM57.5156 32L54.6855 24.2246L54.668 23.4688H55.4121L58.6758 32H57.5156ZM57.3691 28.8418V29.7676H52.5762V28.8418H57.3691ZM63.6504 30.7695V23H64.7402V32H63.7441L63.6504 30.7695ZM59.3848 28.9004V28.7773C59.3848 28.293 59.4434 27.8535 59.5605 27.459C59.6816 27.0605 59.8516 26.7188 60.0703 26.4336C60.293 26.1484 60.5566 25.9297 60.8613 25.7773C61.1699 25.6211 61.5137 25.543 61.8926 25.543C62.291 25.543 62.6387 25.6133 62.9355 25.7539C63.2363 25.8906 63.4902 26.0918 63.6973 26.3574C63.9082 26.6191 64.0742 26.9355 64.1953 27.3066C64.3164 27.6777 64.4004 28.0977 64.4473 28.5664V29.1055C64.4043 29.5703 64.3203 29.9883 64.1953 30.3594C64.0742 30.7305 63.9082 31.0469 63.6973 31.3086C63.4902 31.5703 63.2363 31.7715 62.9355 31.9121C62.6348 32.0488 62.2832 32.1172 61.8809 32.1172C61.5098 32.1172 61.1699 32.0371 60.8613 31.877C60.5566 31.7168 60.293 31.4922 60.0703 31.2031C59.8516 30.9141 59.6816 30.5742 59.5605 30.1836C59.4434 29.7891 59.3848 29.3613 59.3848 28.9004ZM60.4746 28.7773V28.9004C60.4746 29.2168 60.5059 29.5137 60.5684 29.791C60.6348 30.0684 60.7363 30.3125 60.873 30.5234C61.0098 30.7344 61.1836 30.9004 61.3945 31.0215C61.6055 31.1387 61.8574 31.1973 62.1504 31.1973C62.5098 31.1973 62.8047 31.1211 63.0352 30.9688C63.2695 30.8164 63.457 30.6152 63.5977 30.3652C63.7383 30.1152 63.8477 29.8438 63.9258 29.5508V28.1387C63.8789 27.9238 63.8105 27.7168 63.7207 27.5176C63.6348 27.3145 63.5215 27.1348 63.3809 26.9785C63.2441 26.8184 63.0742 26.6914 62.8711 26.5977C62.6719 26.5039 62.4355 26.457 62.1621 26.457C61.8652 26.457 61.6094 26.5195 61.3945 26.6445C61.1836 26.7656 61.0098 26.9336 60.873 27.1484C60.7363 27.3594 60.6348 27.6055 60.5684 27.8867C60.5059 28.1641 60.4746 28.4609 60.4746 28.7773ZM70.4238 30.7695V23H71.5137V32H70.5176L70.4238 30.7695ZM66.1582 28.9004V28.7773C66.1582 28.293 66.2168 27.8535 66.334 27.459C66.4551 27.0605 66.625 26.7188 66.8438 26.4336C67.0664 26.1484 67.3301 25.9297 67.6348 25.7773C67.9434 25.6211 68.2871 25.543 68.666 25.543C69.0645 25.543 69.4121 25.6133 69.709 25.7539C70.0098 25.8906 70.2637 26.0918 70.4707 26.3574C70.6816 26.6191 70.8477 26.9355 70.9688 27.3066C71.0898 27.6777 71.1738 28.0977 71.2207 28.5664V29.1055C71.1777 29.5703 71.0938 29.9883 70.9688 30.3594C70.8477 30.7305 70.6816 31.0469 70.4707 31.3086C70.2637 31.5703 70.0098 31.7715 69.709 31.9121C69.4082 32.0488 69.0566 32.1172 68.6543 32.1172C68.2832 32.1172 67.9434 32.0371 67.6348 31.877C67.3301 31.7168 67.0664 31.4922 66.8438 31.2031C66.625 30.9141 66.4551 30.5742 66.334 30.1836C66.2168 29.7891 66.1582 29.3613 66.1582 28.9004ZM67.248 28.7773V28.9004C67.248 29.2168 67.2793 29.5137 67.3418 29.791C67.4082 30.0684 67.5098 30.3125 67.6465 30.5234C67.7832 30.7344 67.957 30.9004 68.168 31.0215C68.3789 31.1387 68.6309 31.1973 68.9238 31.1973C69.2832 31.1973 69.5781 31.1211 69.8086 30.9688C70.043 30.8164 70.2305 30.6152 70.3711 30.3652C70.5117 30.1152 70.6211 29.8438 70.6992 29.5508V28.1387C70.6523 27.9238 70.584 27.7168 70.4941 27.5176C70.4082 27.3145 70.2949 27.1348 70.1543 26.9785C70.0176 26.8184 69.8477 26.6914 69.6445 26.5977C69.4453 26.5039 69.209 26.457 68.9355 26.457C68.6387 26.457 68.3828 26.5195 68.168 26.6445C67.957 26.7656 67.7832 26.9336 67.6465 27.1484C67.5098 27.3594 67.4082 27.6055 67.3418 27.8867C67.2793 28.1641 67.248 28.4609 67.248 28.7773ZM77.2559 26.9199V32H76.166V25.6602H77.1973L77.2559 26.9199ZM77.0332 28.5898L76.5293 28.5723C76.5332 28.1387 76.5898 27.7383 76.6992 27.3711C76.8086 27 76.9707 26.6777 77.1855 26.4043C77.4004 26.1309 77.668 25.9199 77.9883 25.7715C78.3086 25.6191 78.6797 25.543 79.1016 25.543C79.3984 25.543 79.6719 25.5859 79.9219 25.6719C80.1719 25.7539 80.3887 25.8848 80.5723 26.0645C80.7559 26.2441 80.8984 26.4746 81 26.7559C81.1016 27.0371 81.1523 27.377 81.1523 27.7754V32H80.0684V27.8281C80.0684 27.4961 80.0117 27.2305 79.8984 27.0312C79.7891 26.832 79.6328 26.6875 79.4297 26.5977C79.2266 26.5039 78.9883 26.457 78.7148 26.457C78.3945 26.457 78.127 26.5137 77.9121 26.627C77.6973 26.7402 77.5254 26.8965 77.3965 27.0957C77.2676 27.2949 77.1738 27.5234 77.1152 27.7812C77.0605 28.0352 77.0332 28.3047 77.0332 28.5898ZM81.1406 27.9922L80.4141 28.2148C80.418 27.8672 80.4746 27.5332 80.584 27.2129C80.6973 26.8926 80.8594 26.6074 81.0703 26.3574C81.2852 26.1074 81.5488 25.9102 81.8613 25.7656C82.1738 25.6172 82.5312 25.543 82.9336 25.543C83.2734 25.543 83.5742 25.5879 83.8359 25.6777C84.1016 25.7676 84.3242 25.9062 84.5039 26.0938C84.6875 26.2773 84.8262 26.5137 84.9199 26.8027C85.0137 27.0918 85.0605 27.4355 85.0605 27.834V32H83.9707V27.8223C83.9707 27.4668 83.9141 27.1914 83.8008 26.9961C83.6914 26.7969 83.5352 26.6582 83.332 26.5801C83.1328 26.498 82.8945 26.457 82.6172 26.457C82.3789 26.457 82.168 26.498 81.9844 26.5801C81.8008 26.6621 81.6465 26.7754 81.5215 26.9199C81.3965 27.0605 81.3008 27.2227 81.2344 27.4062C81.1719 27.5898 81.1406 27.7852 81.1406 27.9922ZM86.4141 28.9004V28.7656C86.4141 28.3086 86.4805 27.8848 86.6133 27.4941C86.7461 27.0996 86.9375 26.7578 87.1875 26.4688C87.4375 26.1758 87.7402 25.9492 88.0957 25.7891C88.4512 25.625 88.8496 25.543 89.291 25.543C89.7363 25.543 90.1367 25.625 90.4922 25.7891C90.8516 25.9492 91.1562 26.1758 91.4062 26.4688C91.6602 26.7578 91.8535 27.0996 91.9863 27.4941C92.1191 27.8848 92.1855 28.3086 92.1855 28.7656V28.9004C92.1855 29.3574 92.1191 29.7812 91.9863 30.1719C91.8535 30.5625 91.6602 30.9043 91.4062 31.1973C91.1562 31.4863 90.8535 31.7129 90.498 31.877C90.1465 32.0371 89.748 32.1172 89.3027 32.1172C88.8574 32.1172 88.457 32.0371 88.1016 31.877C87.7461 31.7129 87.4414 31.4863 87.1875 31.1973C86.9375 30.9043 86.7461 30.5625 86.6133 30.1719C86.4805 29.7812 86.4141 29.3574 86.4141 28.9004ZM87.498 28.7656V28.9004C87.498 29.2168 87.5352 29.5156 87.6094 29.7969C87.6836 30.0742 87.7949 30.3203 87.9434 30.5352C88.0957 30.75 88.2852 30.9199 88.5117 31.0449C88.7383 31.166 89.002 31.2266 89.3027 31.2266C89.5996 31.2266 89.8594 31.166 90.082 31.0449C90.3086 30.9199 90.4961 30.75 90.6445 30.5352C90.793 30.3203 90.9043 30.0742 90.9785 29.7969C91.0566 29.5156 91.0957 29.2168 91.0957 28.9004V28.7656C91.0957 28.4531 91.0566 28.1582 90.9785 27.8809C90.9043 27.5996 90.791 27.3516 90.6387 27.1367C90.4902 26.918 90.3027 26.7461 90.0762 26.6211C89.8535 26.4961 89.5918 26.4336 89.291 26.4336C88.9941 26.4336 88.7324 26.4961 88.5059 26.6211C88.2832 26.7461 88.0957 26.918 87.9434 27.1367C87.7949 27.3516 87.6836 27.5996 87.6094 27.8809C87.5352 28.1582 87.498 28.4531 87.498 28.7656ZM94.6289 26.6562V32H93.5449V25.6602H94.5996L94.6289 26.6562ZM96.6094 25.625L96.6035 26.6328C96.5137 26.6133 96.4277 26.6016 96.3457 26.5977C96.2676 26.5898 96.1777 26.5859 96.0762 26.5859C95.8262 26.5859 95.6055 26.625 95.4141 26.7031C95.2227 26.7812 95.0605 26.8906 94.9277 27.0312C94.7949 27.1719 94.6895 27.3398 94.6113 27.5352C94.5371 27.7266 94.4883 27.9375 94.4648 28.168L94.1602 28.3438C94.1602 27.9609 94.1973 27.6016 94.2715 27.2656C94.3496 26.9297 94.4688 26.6328 94.6289 26.375C94.7891 26.1133 94.9922 25.9102 95.2383 25.7656C95.4883 25.6172 95.7852 25.543 96.1289 25.543C96.207 25.543 96.2969 25.5527 96.3984 25.5723C96.5 25.5879 96.5703 25.6055 96.6094 25.625ZM100.125 32.1172C99.6836 32.1172 99.2832 32.043 98.9238 31.8945C98.5684 31.7422 98.2617 31.5293 98.0039 31.2559C97.75 30.9824 97.5547 30.6582 97.418 30.2832C97.2812 29.9082 97.2129 29.498 97.2129 29.0527V28.8066C97.2129 28.291 97.2891 27.832 97.4414 27.4297C97.5938 27.0234 97.8008 26.6797 98.0625 26.3984C98.3242 26.1172 98.6211 25.9043 98.9531 25.7598C99.2852 25.6152 99.6289 25.543 99.9844 25.543C100.438 25.543 100.828 25.6211 101.156 25.7773C101.488 25.9336 101.76 26.1523 101.971 26.4336C102.182 26.7109 102.338 27.0391 102.439 27.418C102.541 27.793 102.592 28.2031 102.592 28.6484V29.1348H97.8574V28.25H101.508V28.168C101.492 27.8867 101.434 27.6133 101.332 27.3477C101.234 27.082 101.078 26.8633 100.863 26.6914C100.648 26.5195 100.355 26.4336 99.9844 26.4336C99.7383 26.4336 99.5117 26.4863 99.3047 26.5918C99.0977 26.6934 98.9199 26.8457 98.7715 27.0488C98.623 27.252 98.5078 27.5 98.4258 27.793C98.3438 28.0859 98.3027 28.4238 98.3027 28.8066V29.0527C98.3027 29.3535 98.3438 29.6367 98.4258 29.9023C98.5117 30.1641 98.6348 30.3945 98.7949 30.5938C98.959 30.793 99.1562 30.9492 99.3867 31.0625C99.6211 31.1758 99.8867 31.2324 100.184 31.2324C100.566 31.2324 100.891 31.1543 101.156 30.998C101.422 30.8418 101.654 30.6328 101.854 30.3711L102.51 30.8926C102.373 31.0996 102.199 31.2969 101.988 31.4844C101.777 31.6719 101.518 31.8242 101.209 31.9414C100.904 32.0586 100.543 32.1172 100.125 32.1172ZM109.752 30.7051L112.266 23.4688H113.49L110.332 32H109.459L109.752 30.7051ZM107.402 23.4688L109.893 30.7051L110.203 32H109.33L106.178 23.4688H107.402ZM116.848 32.1172C116.406 32.1172 116.006 32.043 115.646 31.8945C115.291 31.7422 114.984 31.5293 114.727 31.2559C114.473 30.9824 114.277 30.6582 114.141 30.2832C114.004 29.9082 113.936 29.498 113.936 29.0527V28.8066C113.936 28.291 114.012 27.832 114.164 27.4297C114.316 27.0234 114.523 26.6797 114.785 26.3984C115.047 26.1172 115.344 25.9043 115.676 25.7598C116.008 25.6152 116.352 25.543 116.707 25.543C117.16 25.543 117.551 25.6211 117.879 25.7773C118.211 25.9336 118.482 26.1523 118.693 26.4336C118.904 26.7109 119.061 27.0391 119.162 27.418C119.264 27.793 119.314 28.2031 119.314 28.6484V29.1348H114.58V28.25H118.23V28.168C118.215 27.8867 118.156 27.6133 118.055 27.3477C117.957 27.082 117.801 26.8633 117.586 26.6914C117.371 26.5195 117.078 26.4336 116.707 26.4336C116.461 26.4336 116.234 26.4863 116.027 26.5918C115.82 26.6934 115.643 26.8457 115.494 27.0488C115.346 27.252 115.23 27.5 115.148 27.793C115.066 28.0859 115.025 28.4238 115.025 28.8066V29.0527C115.025 29.3535 115.066 29.6367 115.148 29.9023C115.234 30.1641 115.357 30.3945 115.518 30.5938C115.682 30.793 115.879 30.9492 116.109 31.0625C116.344 31.1758 116.609 31.2324 116.906 31.2324C117.289 31.2324 117.613 31.1543 117.879 30.998C118.145 30.8418 118.377 30.6328 118.576 30.3711L119.232 30.8926C119.096 31.0996 118.922 31.2969 118.711 31.4844C118.5 31.6719 118.24 31.8242 117.932 31.9414C117.627 32.0586 117.266 32.1172 116.848 32.1172ZM121.758 25.6602V32H120.668V25.6602H121.758ZM120.586 23.9785C120.586 23.8027 120.639 23.6543 120.744 23.5332C120.854 23.4121 121.014 23.3516 121.225 23.3516C121.432 23.3516 121.59 23.4121 121.699 23.5332C121.812 23.6543 121.869 23.8027 121.869 23.9785C121.869 24.1465 121.812 24.291 121.699 24.4121C121.59 24.5293 121.432 24.5879 121.225 24.5879C121.014 24.5879 120.854 24.5293 120.744 24.4121C120.639 24.291 120.586 24.1465 120.586 23.9785ZM126.035 31.2266C126.293 31.2266 126.531 31.1738 126.75 31.0684C126.969 30.9629 127.148 30.8184 127.289 30.6348C127.43 30.4473 127.51 30.2344 127.529 29.9961H128.561C128.541 30.3711 128.414 30.7207 128.18 31.0449C127.949 31.3652 127.646 31.625 127.271 31.8242C126.896 32.0195 126.484 32.1172 126.035 32.1172C125.559 32.1172 125.143 32.0332 124.787 31.8652C124.436 31.6973 124.143 31.4668 123.908 31.1738C123.678 30.8809 123.504 30.5449 123.387 30.166C123.273 29.7832 123.217 29.3789 123.217 28.9531V28.707C123.217 28.2812 123.273 27.8789 123.387 27.5C123.504 27.1172 123.678 26.7793 123.908 26.4863C124.143 26.1934 124.436 25.9629 124.787 25.7949C125.143 25.627 125.559 25.543 126.035 25.543C126.531 25.543 126.965 25.6445 127.336 25.8477C127.707 26.0469 127.998 26.3203 128.209 26.668C128.424 27.0117 128.541 27.4023 128.561 27.8398H127.529C127.51 27.5781 127.436 27.3418 127.307 27.1309C127.182 26.9199 127.01 26.752 126.791 26.627C126.576 26.498 126.324 26.4336 126.035 26.4336C125.703 26.4336 125.424 26.5 125.197 26.6328C124.975 26.7617 124.797 26.9375 124.664 27.1602C124.535 27.3789 124.441 27.623 124.383 27.8926C124.328 28.1582 124.301 28.4297 124.301 28.707V28.9531C124.301 29.2305 124.328 29.5039 124.383 29.7734C124.438 30.043 124.529 30.2871 124.658 30.5059C124.791 30.7246 124.969 30.9004 125.191 31.0332C125.418 31.1621 125.699 31.2266 126.035 31.2266ZM130.957 23V32H129.867V23H130.957ZM135.328 32.1172C134.887 32.1172 134.486 32.043 134.127 31.8945C133.771 31.7422 133.465 31.5293 133.207 31.2559C132.953 30.9824 132.758 30.6582 132.621 30.2832C132.484 29.9082 132.416 29.498 132.416 29.0527V28.8066C132.416 28.291 132.492 27.832 132.645 27.4297C132.797 27.0234 133.004 26.6797 133.266 26.3984C133.527 26.1172 133.824 25.9043 134.156 25.7598C134.488 25.6152 134.832 25.543 135.188 25.543C135.641 25.543 136.031 25.6211 136.359 25.7773C136.691 25.9336 136.963 26.1523 137.174 26.4336C137.385 26.7109 137.541 27.0391 137.643 27.418C137.744 27.793 137.795 28.2031 137.795 28.6484V29.1348H133.061V28.25H136.711V28.168C136.695 27.8867 136.637 27.6133 136.535 27.3477C136.438 27.082 136.281 26.8633 136.066 26.6914C135.852 26.5195 135.559 26.4336 135.188 26.4336C134.941 26.4336 134.715 26.4863 134.508 26.5918C134.301 26.6934 134.123 26.8457 133.975 27.0488C133.826 27.252 133.711 27.5 133.629 27.793C133.547 28.0859 133.506 28.4238 133.506 28.8066V29.0527C133.506 29.3535 133.547 29.6367 133.629 29.9023C133.715 30.1641 133.838 30.3945 133.998 30.5938C134.162 30.793 134.359 30.9492 134.59 31.0625C134.824 31.1758 135.09 31.2324 135.387 31.2324C135.77 31.2324 136.094 31.1543 136.359 30.998C136.625 30.8418 136.857 30.6328 137.057 30.3711L137.713 30.8926C137.576 31.0996 137.402 31.2969 137.191 31.4844C136.98 31.6719 136.721 31.8242 136.412 31.9414C136.107 32.0586 135.746 32.1172 135.328 32.1172ZM142.752 30.3184C142.752 30.1621 142.717 30.0176 142.646 29.8848C142.58 29.748 142.441 29.625 142.23 29.5156C142.023 29.4023 141.711 29.3047 141.293 29.2227C140.941 29.1484 140.623 29.0605 140.338 28.959C140.057 28.8574 139.816 28.7344 139.617 28.5898C139.422 28.4453 139.271 28.2754 139.166 28.0801C139.061 27.8848 139.008 27.6562 139.008 27.3945C139.008 27.1445 139.062 26.9082 139.172 26.6855C139.285 26.4629 139.443 26.2656 139.646 26.0938C139.854 25.9219 140.102 25.7871 140.391 25.6895C140.68 25.5918 141.002 25.543 141.357 25.543C141.865 25.543 142.299 25.6328 142.658 25.8125C143.018 25.9922 143.293 26.2324 143.484 26.5332C143.676 26.8301 143.771 27.1602 143.771 27.5234H142.688C142.688 27.3477 142.635 27.1777 142.529 27.0137C142.428 26.8457 142.277 26.707 142.078 26.5977C141.883 26.4883 141.643 26.4336 141.357 26.4336C141.057 26.4336 140.812 26.4805 140.625 26.5742C140.441 26.6641 140.307 26.7793 140.221 26.9199C140.139 27.0605 140.098 27.209 140.098 27.3652C140.098 27.4824 140.117 27.5879 140.156 27.6816C140.199 27.7715 140.273 27.8555 140.379 27.9336C140.484 28.0078 140.633 28.0781 140.824 28.1445C141.016 28.2109 141.26 28.2773 141.557 28.3438C142.076 28.4609 142.504 28.6016 142.84 28.7656C143.176 28.9297 143.426 29.1309 143.59 29.3691C143.754 29.6074 143.836 29.8965 143.836 30.2363C143.836 30.5137 143.777 30.7676 143.66 30.998C143.547 31.2285 143.381 31.4277 143.162 31.5957C142.947 31.7598 142.689 31.8887 142.389 31.9824C142.092 32.0723 141.758 32.1172 141.387 32.1172C140.828 32.1172 140.355 32.0176 139.969 31.8184C139.582 31.6191 139.289 31.3613 139.09 31.0449C138.891 30.7285 138.791 30.3945 138.791 30.043H139.881C139.896 30.3398 139.982 30.5762 140.139 30.752C140.295 30.9238 140.486 31.0469 140.713 31.1211C140.939 31.1914 141.164 31.2266 141.387 31.2266C141.684 31.2266 141.932 31.1875 142.131 31.1094C142.334 31.0312 142.488 30.9238 142.594 30.7871C142.699 30.6504 142.752 30.4941 142.752 30.3184Z" fill="#4E148C"/>
<path fill-rule="evenodd" clip-rule="evenodd" d="M33 21C33.2321 21 33.4546 21.0922 33.6187 21.2563C33.7828 21.4204 33.875 21.6429 33.875 21.875V27.125H39.125C39.3571 27.125 39.5796 27.2172 39.7437 27.3813C39.9078 27.5454 40 27.7679 40 28C40 28.2321 39.9078 28.4546 39.7437 28.6187C39.5796 28.7828 39.3571 28.875 39.125 28.875H33.875V34.125C33.875 34.3571 33.7828 34.5796 33.6187 34.7437C33.4546 34.9078 33.2321 35 33 35C32.7679 35 32.5454 34.9078 32.3813 34.7437C32.2172 34.5796 32.125 34.3571 32.125 34.125V28.875H26.875C26.6429 28.875 26.4204 28.7828 26.2563 28.6187C26.0922 28.4546 26 28.2321 26 28C26 27.7679 26.0922 27.5454 26.2563 27.3813C26.4204 27.2172 26.6429 27.125 26.875 27.125H32.125V21.875C32.125 21.6429 32.2172 21.4204 32.3813 21.2563C32.5454 21.0922 32.7679 21 33 21Z" fill="#4E148C"/>
<defs>
<filter id="filter0_d_796_2" x="0" y="0" width="176" height="57" filterUnits="userSpaceOnUse" color-interpolation-filters="sRGB">
<feFlood flood-opacity="0" result="BackgroundImageFix"/>
<feColorMatrix in="SourceAlpha" type="matrix" values="0 0 0 0 0 0 0 0 0 0 0 0 0 0 0 0 0 0 127 0" result="hardAlpha"/>
<feMorphology radius="5" operator="dilate" in="SourceAlpha" result="effect1_dropShadow_796_2"/>
<feOffset dx="1" dy="1"/>
<feGaussianBlur stdDeviation="3"/>
<feComposite in2="hardAlpha" operator="out"/>
<feColorMatrix type="matrix" values="0 0 0 0 0 0 0 0 0 0 0 0 0 0 0 0 0 0 0.04 0"/>
<feBlend mode="normal" in2="BackgroundImageFix" result="effect1_dropShadow_796_2"/>
<feBlend mode="normal" in="SourceGraphic" in2="effect1_dropShadow_796_2" result="shape"/>
</filter>
</defs>
</svg>
