<svg width="19" height="20" viewBox="0 0 19 20" fill="none" xmlns="http://www.w3.org/2000/svg">
<path d="M8.49 12V9H10.49V12H15.49C15.7552 12 16.0096 12.1054 16.1971 12.2929C16.3846 12.4804 16.49 12.7348 16.49 13V19C16.49 19.2652 16.3846 19.5196 16.1971 19.7071C16.0096 19.8946 15.7552 20 15.49 20H3.49C3.22478 20 2.97043 19.8946 2.78289 19.7071C2.59536 19.5196 2.49 19.2652 2.49 19V13C2.49 12.7348 2.59536 12.4804 2.78289 12.2929C2.97043 12.1054 3.22478 12 3.49 12H8.49ZM0 6.837C1.325 2.864 5.074 0 9.49 0C13.906 0 17.656 2.864 18.98 6.837L17.082 7.469C16.5507 5.87573 15.5316 4.49 14.169 3.50805C12.8065 2.5261 11.1695 1.99771 9.49 1.99771C7.81048 1.99771 6.17352 2.5261 4.81096 3.50805C3.44841 4.49 2.42931 5.87573 1.898 7.469L0.000999928 6.837H0ZM3.796 8.102C4.19486 6.90741 4.95932 5.86853 5.9812 5.13239C7.00307 4.39625 8.23059 4.00015 9.49 4.00015C10.7494 4.00015 11.9769 4.39625 12.9988 5.13239C14.0207 5.86853 14.7851 6.90741 15.184 8.102L13.286 8.735C13.0201 7.93861 12.5105 7.24602 11.8292 6.75526C11.148 6.2645 10.3296 6.00043 9.49 6.00043C8.65039 6.00043 7.83205 6.2645 7.1508 6.75526C6.46955 7.24602 5.9599 7.93861 5.694 8.735L3.796 8.102ZM4.49 14V18H14.49V14H4.49Z" fill="#747474"/>
</svg>
