<svg id="password" xmlns="http://www.w3.org/2000/svg" width="512" height="512" viewBox="0 0 512 512">
  <path id="Path_584" data-name="Path 584" d="M0,0H512V512H0Z" transform="translate(0)" fill="none"/>
  <path id="Path_585" data-name="Path 585" d="M344.333,172.667h21.333A21.333,21.333,0,0,1,387,194V407.333a21.333,21.333,0,0,1-21.333,21.333H24.333A21.333,21.333,0,0,1,3,407.333V194a21.333,21.333,0,0,1,21.333-21.333H45.667V151.333a149.333,149.333,0,1,1,298.667,0ZM45.667,215.333V386H344.333V215.333Zm128,42.667h42.667v85.333H173.667Zm128-85.333V151.333a106.667,106.667,0,1,0-213.333,0v21.333Z" transform="translate(61 40.667)" fill="#666f80"/>
</svg>
