<svg xmlns="http://www.w3.org/2000/svg" width="584.052" height="671.702" viewBox="0 0 584.052 671.702">
  <path id="Path_1727" data-name="Path 1727" d="M295.4,510.968c124.255,0,232.935,53.442,292.043,133.18l-62.5,29.554C476.831,616.7,392,578.831,295.4,578.831S113.975,616.7,65.861,673.7L3.394,644.114C62.5,564.376,171.148,510.968,295.4,510.968ZM295.4,2A169.655,169.655,0,0,1,465.057,171.656V273.45A169.653,169.653,0,0,1,302.776,442.936l-7.373.17A169.655,169.655,0,0,1,125.749,273.45V171.656A169.653,169.653,0,0,1,288.03,2.17Zm0,67.862A101.794,101.794,0,0,0,193.78,165.69l-.169,5.966V273.45a101.792,101.792,0,0,0,203.415,5.972l.17-5.972V171.656A101.793,101.793,0,0,0,295.4,69.862Z" transform="translate(-3.394 -2)" fill="#020308"/>
</svg>
