<svg width="19" height="19" viewBox="0 0 19 19" fill="none" xmlns="http://www.w3.org/2000/svg">
<path d="M14.25 1.9H18.05C18.302 1.9 18.5436 2.00009 18.7218 2.17825C18.8999 2.35641 19 2.59804 19 2.85V18.05C19 18.302 18.8999 18.5436 18.7218 18.7218C18.5436 18.8999 18.302 19 18.05 19H0.95C0.698044 19 0.456408 18.8999 0.278249 18.7218C0.100089 18.5436 0 18.302 0 18.05V2.85C0 2.59804 0.100089 2.35641 0.278249 2.17825C0.456408 2.00009 0.698044 1.9 0.95 1.9H4.75V0H6.65V1.9H12.35V0H14.25V1.9ZM17.1 9.5H1.9V17.1H17.1V9.5ZM12.35 3.8H6.65V5.7H4.75V3.8H1.9V7.6H17.1V3.8H14.25V5.7H12.35V3.8ZM3.8 11.4H5.7V13.3H3.8V11.4ZM8.55 11.4H10.45V13.3H8.55V11.4ZM13.3 11.4H15.2V13.3H13.3V11.4Z" fill="#747474"/>
</svg>
