<svg width="21" height="21" viewBox="0 0 21 21" fill="none" xmlns="http://www.w3.org/2000/svg">
<path fill-rule="evenodd" clip-rule="evenodd" d="M4.72044 15.521H2.73913C2.01267 15.521 1.31596 15.2324 0.802273 14.7188C0.288586 14.2051 0 13.5084 0 12.782V2.739C0 2.01257 0.288586 1.3159 0.802273 0.802234C1.31596 0.288572 2.01267 0 2.73913 0H15.5217C16.2482 0 16.9449 0.288572 17.4586 0.802234C17.9723 1.3159 18.2609 2.01257 18.2609 2.739V5.47799C18.9873 5.47799 19.684 5.76657 20.1977 6.28023C20.7114 6.79389 21 7.49056 21 8.21699V14.608C21 15.3344 20.7114 16.0311 20.1977 16.5447C19.684 17.0584 18.9873 17.347 18.2609 17.347H16.3928L13.4701 20.6876C13.3844 20.7857 13.2787 20.8643 13.1602 20.9182C13.0416 20.972 12.9128 20.9999 12.7826 20.9999C12.6524 20.9999 12.5236 20.972 12.4051 20.9182C12.2865 20.8643 12.1808 20.7857 12.0951 20.6876L9.17335 17.347H7.30435C6.7377 17.3471 6.18493 17.1716 5.72218 16.8446C5.25942 16.5176 4.90944 16.0552 4.72044 15.521ZM16.4348 5.47799V2.739C16.4348 2.49685 16.3386 2.26463 16.1674 2.09341C15.9961 1.92219 15.7639 1.826 15.5217 1.826H2.73913C2.49698 1.826 2.26474 1.92219 2.09351 2.09341C1.92228 2.26463 1.82609 2.49685 1.82609 2.739V12.782C1.82609 13.0241 1.92228 13.2564 2.09351 13.4276C2.26474 13.5988 2.49698 13.695 2.73913 13.695H4.56522V8.21699C4.56522 7.49056 4.8538 6.79389 5.36749 6.28023C5.88118 5.76657 6.57789 5.47799 7.30435 5.47799H16.4348ZM15.2907 15.8323L12.7826 18.7L10.2745 15.8332C10.1888 15.7352 10.0831 15.6566 9.96451 15.6027C9.84593 15.5489 9.7172 15.521 9.58696 15.521H7.30435C7.06219 15.521 6.82996 15.4248 6.65873 15.2536C6.4875 15.0824 6.3913 14.8501 6.3913 14.608V8.21699C6.3913 7.97485 6.4875 7.74262 6.65873 7.5714C6.82996 7.40018 7.06219 7.30399 7.30435 7.30399H18.2609C18.503 7.30399 18.7353 7.40018 18.9065 7.5714C19.0777 7.74262 19.1739 7.97485 19.1739 8.21699V14.608C19.1739 14.8501 19.0777 15.0824 18.9065 15.2536C18.7353 15.4248 18.503 15.521 18.2609 15.521H15.9783C15.8481 15.5209 15.7194 15.5486 15.6008 15.6023C15.4822 15.656 15.3765 15.7344 15.2907 15.8323Z" fill="#28769A"/>
</svg>
