<svg width="20" height="18" viewBox="0 0 20 18" fill="none" xmlns="http://www.w3.org/2000/svg">
<path fill-rule="evenodd" clip-rule="evenodd" d="M9.67432 17.4388C9.46596 17.6471 9.18339 17.7641 8.88876 17.7641C8.59413 17.7641 8.31156 17.6471 8.10319 17.4388L0.325322 9.66091C0.117019 9.45254 1.19209e-06 9.16997 1.19209e-06 8.87534C1.19209e-06 8.58071 0.117019 8.29814 0.325322 8.08978L8.10319 0.311908C8.31275 0.109508 8.59343 -0.00248803 8.88476 4.49278e-05C9.17609 0.00257598 9.45478 0.119432 9.66079 0.325444C9.8668 0.531455 9.98365 0.81014 9.98619 1.10147C9.98872 1.39281 9.87672 1.67348 9.67432 1.88304L3.79314 7.76422L18.8889 7.76422C19.1836 7.76422 19.4662 7.88128 19.6746 8.08966C19.8829 8.29804 20 8.58065 20 8.87534C20 9.17003 19.8829 9.45265 19.6746 9.66103C19.4662 9.8694 19.1836 9.98647 18.8889 9.98647L3.79314 9.98647L9.67432 15.8676C9.88263 16.076 9.99964 16.3586 9.99964 16.6532C9.99964 16.9478 9.88263 17.2304 9.67432 17.4388Z" fill="#28769A"/>
</svg>
