<svg width="11" height="16" viewBox="0 0 11 16" fill="none" xmlns="http://www.w3.org/2000/svg">
<path fill-rule="evenodd" clip-rule="evenodd" d="M8.24976 1.77782C8.00663 1.77782 7.77345 1.87147 7.60153 2.03817C7.42961 2.20486 7.33302 2.43096 7.33302 2.6667C7.33302 2.90245 7.42961 3.12854 7.60153 3.29524C7.77345 3.46194 8.00663 3.55559 8.24976 3.55559C8.49289 3.55559 8.72607 3.46194 8.89799 3.29524C9.06991 3.12854 9.16649 2.90245 9.16649 2.6667C9.16649 2.43096 9.06991 2.20486 8.89799 2.03817C8.72607 1.87147 8.49289 1.77782 8.24976 1.77782ZM5.49955 2.6667C5.49954 2.08858 5.6933 1.52611 6.05163 1.06404C6.40996 0.601964 6.91345 0.265319 7.48625 0.104822C8.05906 -0.0556755 8.67014 -0.0313317 9.22743 0.174186C9.78472 0.379703 10.258 0.755262 10.5761 1.24428C10.8941 1.73329 11.0396 2.30928 10.9907 2.88546C10.9418 3.46163 10.7011 4.00678 10.3048 4.43878C9.90859 4.87078 9.3783 5.16622 8.79385 5.2806C8.2094 5.39497 7.60244 5.32208 7.06442 5.07291L5.23095 6.85068C5.4033 7.19823 5.49955 7.58845 5.49955 8.00001C5.49955 8.41156 5.4033 8.80178 5.23095 9.14933L7.06442 10.9271C7.64984 10.656 8.31527 10.5942 8.94309 10.7528C9.57091 10.9114 10.1207 11.2801 10.4953 11.7937C10.8699 12.3073 11.0451 12.9328 10.9901 13.5596C10.935 14.1864 10.6532 14.7741 10.1945 15.219C9.73573 15.6638 9.12957 15.937 8.48313 15.9904C7.8367 16.0438 7.19161 15.8738 6.6619 15.5106C6.13219 15.1474 5.75196 14.6143 5.58841 14.0056C5.42486 13.3968 5.48853 12.7516 5.76816 12.184L3.93469 10.4062C3.51547 10.6002 3.05241 10.6881 2.5887 10.6616C2.125 10.6352 1.67576 10.4953 1.28289 10.255C0.890014 10.0147 0.566315 9.68179 0.341984 9.28741C0.117653 8.89301 0 8.44996 0 7.99956C0 7.54917 0.117653 7.10611 0.341984 6.71172C0.566315 6.31733 0.890014 5.98446 1.28289 5.74416C1.67576 5.50386 2.125 5.36396 2.5887 5.33751C3.05241 5.31106 3.51547 5.39893 3.93469 5.59291L5.76816 3.81603C5.59105 3.45724 5.49926 3.06447 5.49955 2.6667ZM2.74935 7.11112C2.50622 7.11112 2.27304 7.20477 2.10112 7.37147C1.9292 7.53817 1.83262 7.76426 1.83262 8.00001C1.83262 8.23575 1.9292 8.46184 2.10112 8.62854C2.27304 8.79524 2.50622 8.88889 2.74935 8.88889C2.99248 8.88889 3.22566 8.79524 3.39758 8.62854C3.5695 8.46184 3.66609 8.23575 3.66609 8.00001C3.66609 7.76426 3.5695 7.53817 3.39758 7.37147C3.22566 7.20477 2.99248 7.11112 2.74935 7.11112ZM8.24976 12.4444C8.12934 12.4442 8.01005 12.467 7.89881 12.5117C7.78756 12.5564 7.68655 12.6221 7.60163 12.7049C7.45168 12.8503 7.35838 13.0417 7.33762 13.2463C7.31686 13.451 7.36994 13.6563 7.4878 13.8273C7.60566 13.9982 7.78102 14.1243 7.98399 14.184C8.18696 14.2436 8.40499 14.2332 8.60093 14.1545C8.79686 14.0757 8.95858 13.9336 9.05852 13.7522C9.15847 13.5708 9.19046 13.3614 9.14904 13.1597C9.10762 12.958 8.99536 12.7765 8.83138 12.6461C8.6674 12.5156 8.46185 12.4444 8.24976 12.4444Z" fill="#28769A"/>
</svg>
