<svg id="Group_9033" data-name="Group 9033" xmlns="http://www.w3.org/2000/svg" width="892.136" height="892.136" viewBox="0 0 892.136 892.136">
  <path id="Path_819" data-name="Path 819" d="M0,0H892.135V892.135H0Z" fill="none"/>
  <path id="Path_820" data-name="Path 820" d="M633.929,745.446H113.517A111.517,111.517,0,0,1,2,633.929V39.172A37.172,37.172,0,0,1,39.172,2H559.585a37.172,37.172,0,0,1,37.172,37.172V485.24H745.446V633.929A111.517,111.517,0,0,1,633.929,745.446ZM596.757,559.585v74.345a37.172,37.172,0,1,0,74.345,0V559.585ZM522.412,671.1V76.345H76.345V633.929A37.172,37.172,0,0,0,113.517,671.1ZM150.689,187.862H448.068v74.345H150.689Zm0,148.689H448.068V410.9H150.689Zm0,148.689H336.551v74.345H150.689Z" transform="translate(72.345 72.345)"/>
</svg>
