<svg id="Group_9034" data-name="Group 9034" xmlns="http://www.w3.org/2000/svg" width="784.872" height="784.872" viewBox="0 0 784.872 784.872">
  <path id="Path_761" data-name="Path 761" d="M0,0H784.872V784.872H0Z" fill="none"/>
  <path id="Path_762" data-name="Path 762" d="M67.406,459.842V67.406H2V2h98.109a32.7,32.7,0,0,1,32.7,32.7V427.139h406.76l65.406-261.624H198.218V100.109H646.9a32.7,32.7,0,0,1,31.722,40.65l-81.758,327.03a32.7,32.7,0,0,1-31.722,24.756H100.109A32.7,32.7,0,0,1,67.406,459.842Zm65.406,228.921a65.406,65.406,0,1,1,65.406-65.406A65.406,65.406,0,0,1,132.812,688.763Zm392.436,0a65.406,65.406,0,1,1,65.406-65.406A65.406,65.406,0,0,1,525.248,688.763Z" transform="translate(63.406 63.406)" fill="#020308"/>
</svg>
