<svg width="12" height="11" viewBox="0 0 12 11" fill="none" xmlns="http://www.w3.org/2000/svg">
<path fill-rule="evenodd" clip-rule="evenodd" d="M6.19541 0.195193C6.32043 0.0702112 6.48997 0 6.66675 0C6.84352 0 7.01306 0.0702112 7.13808 0.195193L11.8048 4.86192C11.9298 4.98694 12 5.15648 12 5.33325C12 5.51003 11.9298 5.67957 11.8048 5.80459L7.13808 10.4713C7.01235 10.5928 6.84395 10.66 6.66915 10.6584C6.49435 10.6569 6.32713 10.5868 6.20353 10.4632C6.07992 10.3396 6.00981 10.1724 6.00829 9.99758C6.00677 9.82278 6.07397 9.65437 6.19541 9.52864L9.72412 5.99993H0.666675C0.489861 5.99993 0.32029 5.92969 0.195264 5.80466C0.0702387 5.67964 0 5.51007 0 5.33325C0 5.15644 0.0702387 4.98687 0.195264 4.86184C0.32029 4.73682 0.489861 4.66658 0.666675 4.66658H9.72412L6.19541 1.13787C6.07042 1.01285 6.00021 0.84331 6.00021 0.666532C6.00021 0.489754 6.07042 0.320213 6.19541 0.195193Z" fill="black"/>
</svg>
