<svg width="55" height="55" viewBox="0 0 55 55" fill="none" xmlns="http://www.w3.org/2000/svg">
<path fill-rule="evenodd" clip-rule="evenodd" d="M15.2778 18.3336C15.2778 15.0921 16.5655 11.9833 18.8576 9.69121C21.1497 7.39911 24.2585 6.11143 27.5 6.11143C30.7415 6.11143 33.8503 7.39911 36.1424 9.69121C38.4345 11.9833 39.7222 15.0921 39.7222 18.3336C39.7222 21.5751 38.4345 24.6838 36.1424 26.9759C33.8503 29.268 30.7415 30.5557 27.5 30.5557C24.2585 30.5557 21.1497 29.268 18.8576 26.9759C16.5655 24.6838 15.2778 21.5751 15.2778 18.3336ZM39.1844 32.4593C42.0918 30.0542 44.1863 26.8105 45.182 23.171C46.1777 19.5315 46.0261 15.6733 44.748 12.1231C43.4698 8.57294 41.1274 5.50358 38.0403 3.33393C34.9532 1.16427 31.2718 0 27.4985 0C23.7252 0 20.0438 1.16427 16.9567 3.33393C13.8696 5.50358 11.5271 8.57294 10.249 12.1231C8.97082 15.6733 8.81926 19.5315 9.81495 23.171C10.8107 26.8105 12.9051 30.0542 15.8125 32.4593C6.06833 35.8907 0 43.5326 0 51.9445C0 52.7548 0.321924 53.532 0.894951 54.1051C1.46798 54.6781 2.24517 55 3.05556 55C3.86594 55 4.64313 54.6781 5.21616 54.1051C5.78919 53.532 6.11111 52.7548 6.11111 51.9445C6.11111 45.0084 13.3069 36.6668 27.5 36.6668C41.6931 36.6668 48.8889 45.0084 48.8889 51.9445C48.8889 52.7548 49.2108 53.532 49.7838 54.1051C50.3569 54.6781 51.1341 55 51.9444 55C52.7548 55 53.532 54.6781 54.1051 54.1051C54.6781 53.532 55 52.7548 55 51.9445C55 43.5326 48.9378 35.8907 39.1844 32.4593Z" fill="#28769A"/>
</svg>
