<svg width="14" height="8" viewBox="0 0 14 8" fill="none" xmlns="http://www.w3.org/2000/svg">
<path fill-rule="evenodd" clip-rule="evenodd" d="M0.255995 0.251066C0.419958 0.0968916 0.64231 0.0102813 0.874153 0.0102813C1.106 0.0102813 1.32835 0.0968916 1.49231 0.251066L6.99453 5.42635L12.4968 0.251066C12.5774 0.172519 12.6739 0.109867 12.7806 0.0667667C12.8872 0.0236662 13.002 0.000979935 13.1181 3.10504e-05C13.2342 -0.000917835 13.3493 0.0198902 13.4567 0.0612406C13.5642 0.102591 13.6618 0.163656 13.7439 0.240872C13.826 0.318088 13.8909 0.409909 13.9349 0.510978C13.9789 0.612046 14.001 0.720338 14 0.829534C13.999 0.93873 13.9748 1.04664 13.929 1.14698C13.8832 1.24731 13.8166 1.33806 13.7331 1.41392L7.61269 7.17064C7.44873 7.32481 7.22638 7.41142 6.99453 7.41142C6.76269 7.41142 6.54034 7.32481 6.37638 7.17064L0.255995 1.41392C0.0920816 1.2597 0 1.05056 0 0.832494C0 0.614426 0.0920816 0.405286 0.255995 0.251066Z" fill="#747474"/>
</svg>
